<?xml version="1.0" encoding="UTF-8" standalone="no"?> <svg xmlns="http://www.w3.org/2000/svg" viewBox="0 0 64 64"><defs><style>.cls-1{fill:#999;}.cls-1,.cls-3{stroke:#54596e;stroke-linecap:round;stroke-linejoin:round;stroke-width:2px;}.cls-2,.cls-4{fill:#54596e;}.cls-2{opacity:0.2;}.cls-3{fill:none;}</style></defs><title>bomb</title><g id="bomb"><rect class="cls-1" x="38.13" y="15.37" width="14" height="6" transform="translate(26.21 -26.53) rotate(45)"/><circle class="cls-1" cx="29" cy="34" r="23" transform="translate(-15.55 30.46) rotate(-45)"/><path class="cls-2" d="M16.74,46.26a23,23,0,0,1-1.86-30.39A23,23,0,1,0,47.13,48.13,23,23,0,0,1,16.74,46.26Z"/><path class="cls-3" d="M47.25,16.25a7.91,7.91,0,0,1,3.54-6.36c3.54-2.12,5.66-1.41,5.66-1.41"/><circle class="cls-4" cx="17.5" cy="31.5" r="1.5"/><circle class="cls-4" cx="38.5" cy="31.5" r="1.5"/><polyline class="cls-3" points="22 43 24 40 26 43 28 40 30 43 32 40 34 43"/><line class="cls-3" x1="16" y1="29" x2="20" y2="30"/><line class="cls-3" x1="40" y1="29" x2="36" y2="30"/></g></svg>