<?xml version="1.0" encoding="UTF-8" standalone="no"?> <svg width="64" height="64" viewBox="0 0 64 64" fill="none" xmlns="http://www.w3.org/2000/svg">
<path d="M54.0001 47.9401C48.6758 48.3913 43.3394 47.2236 38.6901 44.5901C32.5091 41.1095 27.9615 35.3188 26.0454 28.4889C24.1294 21.6589 25.0014 14.3478 28.4701 8.16008C29.1317 6.99108 29.8769 5.87149 30.7001 4.81008C30.846 4.61735 30.9338 4.38701 30.9533 4.14611C30.9727 3.90521 30.9231 3.66374 30.8101 3.45008C30.6939 3.23543 30.5174 3.0595 30.3024 2.94399C30.0874 2.82849 29.8432 2.77846 29.6001 2.80008C24.7695 3.213 20.1175 4.82099 16.063 7.47923C12.0085 10.1375 8.6789 13.7625 6.37403 18.0278C4.06917 22.2931 2.86144 27.0647 2.85962 31.9129C2.8578 36.7611 4.06195 41.5336 6.36361 45.8007C8.66527 50.0677 11.9922 53.6952 16.0447 56.3565C20.0971 59.0178 24.748 60.6292 29.5782 61.0458C34.4085 61.4623 39.2666 60.6709 43.7148 58.7427C48.1631 56.8144 52.0619 53.8101 55.0601 50.0001C55.2095 49.8073 55.3003 49.5757 55.3216 49.3327C55.3429 49.0898 55.2938 48.8459 55.1801 48.6301C55.0687 48.4153 54.8988 48.2365 54.6899 48.1144C54.4811 47.9923 54.2419 47.9318 54.0001 47.9401Z" fill="black"/>
<path d="M59.19 15.29C59.1175 15.0701 58.9858 14.8745 58.8094 14.7245C58.633 14.5746 58.4187 14.4761 58.19 14.44L51 13.4L47.79 6.90001C47.6866 6.69134 47.5269 6.51571 47.3291 6.39293C47.1312 6.27014 46.9029 6.20508 46.67 6.20508C46.4371 6.20508 46.2089 6.27014 46.011 6.39293C45.8131 6.51571 45.6534 6.69134 45.55 6.90001L42.34 13.4L35.16 14.4C34.9313 14.4361 34.717 14.5346 34.5406 14.6845C34.3642 14.8345 34.2325 15.0301 34.16 15.25C34.0901 15.4737 34.083 15.7123 34.1395 15.9398C34.1959 16.1673 34.3137 16.3749 34.48 16.54L39.67 21.6L38.45 28.75C38.4177 28.9294 38.4253 29.1137 38.4723 29.2899C38.5193 29.466 38.6046 29.6296 38.722 29.769C38.8395 29.9084 38.9862 30.0202 39.1518 30.0964C39.3174 30.1727 39.4977 30.2114 39.68 30.21C39.8816 30.2089 40.0801 30.161 40.26 30.07L46.68 26.69L53.1 30.07C53.3077 30.1774 53.5411 30.225 53.7742 30.2073C54.0073 30.1897 54.2309 30.1075 54.42 29.97C54.6087 29.8338 54.755 29.6469 54.8417 29.431C54.9284 29.215 54.9521 28.9789 54.91 28.75L53.69 21.6L58.88 16.54C59.0393 16.3788 59.1522 16.1776 59.2068 15.9576C59.2613 15.7376 59.2555 15.507 59.19 15.29V15.29Z" fill="black"/>
</svg>
