<svg version="1.1" xmlns="http://www.w3.org/2000/svg" xmlns:xlink="http://www.w3.org/1999/xlink" width="300" height="300" viewBox="0, 0, 400,400"><path id="path0" d="M99.421 99.410 L 2.344 196.476 2.344 199.714 C 2.344 201.737,2.904 203.644,3.836 204.796 L 5.329 206.641 30.008 206.867 L 54.688 207.094 54.687 300.458 L 54.687 393.821 56.605 395.739 L 58.523 397.656 107.813 397.656 L 157.102 397.656 159.020 395.739 L 160.937 393.821 160.938 326.598 L 160.938 259.375 200.000 259.375 L 239.063 259.375 239.063 326.598 L 239.063 393.821 240.980 395.739 L 242.898 397.656 292.486 397.656 L 342.074 397.656 343.693 395.598 C 345.311 393.541,345.313 393.445,345.313 300.285 L 345.313 207.031 369.567 207.031 L 393.821 207.031 395.739 205.114 C 397.180 203.672,397.656 202.362,397.656 199.836 L 397.656 196.476 300.579 99.410 L 203.501 2.344 200.000 2.344 L 196.499 2.344 99.421 99.410 M287.003 106.055 L 373.336 192.187 365.307 192.188 C 344.345 192.188,335.736 193.050,333.403 195.383 L 331.250 197.536 331.250 290.956 L 331.250 384.375 292.188 384.375 L 253.125 384.375 253.125 317.152 L 253.125 249.929 251.207 248.011 L 249.290 246.094 200.000 246.094 L 150.710 246.094 148.793 248.011 L 146.875 249.929 146.875 317.152 L 146.875 384.375 107.813 384.375 L 68.750 384.375 68.750 290.956 L 68.750 197.536 66.466 195.252 L 64.183 192.969 45.179 192.969 L 26.175 192.969 112.891 106.250 C 160.585 58.554,199.846 19.619,200.138 19.726 C 200.430 19.834,239.519 58.682,287.003 106.055 " stroke="#000" stroke-width="3" fill="#000000" fill-rule="evenodd"></path></svg>