<svg id="svg" xmlns="http://www.w3.org/2000/svg" xmlns:xlink="http://www.w3.org/1999/xlink" width="300" height="300" viewBox="0, -40, 425, 425" version="1.1"><g id="svgg"><path id="path0" d="M184.793 10.972 C 67.840 19.834,-2.505 140.975,48.920 244.959 C 102.767 353.840,251.523 367.336,324.705 269.979 C 330.045 262.875,329.917 263.323,326.777 262.741 C 325.413 262.488,322.689 261.731,320.723 261.058 C 315.775 259.364,316.040 259.251,311.596 264.959 C 238.877 358.357,89.855 332.175,52.876 219.504 C 11.672 93.959,144.602 -19.466,262.348 40.770 C 278.583 49.076,308.760 73.371,308.760 78.136 C 308.760 78.434,298.198 78.678,285.289 78.678 L 261.818 78.678 261.818 85.289 L 261.818 91.901 295.868 91.901 L 329.917 91.901 329.917 58.182 L 329.917 24.463 322.975 24.463 L 316.033 24.463 316.040 44.793 L 316.046 65.124 308.271 57.516 C 275.600 25.550,228.200 7.683,184.793 10.972 " stroke="#000" stroke-width="4" fill="#000000" fill-rule="evenodd"></path></g></svg>