<svg id="svg" xmlns="http://www.w3.org/2000/svg" xmlns:xlink="http://www.w3.org/1999/xlink" width="300" height="300" viewBox="0, 0, 360,360" version="1.1"><g id="svgg"><path id="path0" d="M58.843 179.174 L 58.843 329.917 199.339 329.917 L 339.835 329.917 339.835 212.064 L 339.835 94.210 306.940 61.320 L 274.045 28.430 166.444 28.430 L 58.843 28.430 58.843 179.174 M126.841 40.760 L 132.893 41.190 132.893 68.529 L 132.893 95.868 188.760 95.868 L 244.628 95.868 244.628 68.528 L 244.628 41.188 250.083 40.763 C 253.083 40.530,258.511 40.337,262.146 40.335 L 268.755 40.331 297.353 68.923 L 325.950 97.515 325.950 206.443 L 325.950 315.372 199.008 315.372 L 72.066 315.372 72.066 177.851 L 72.066 40.331 96.427 40.331 C 109.826 40.331,123.512 40.524,126.841 40.760 M230.744 61.488 L 230.744 82.645 188.430 82.645 L 146.116 82.645 146.116 61.488 L 146.116 40.331 188.430 40.331 L 230.744 40.331 230.744 61.488 M119.669 209.256 L 119.669 266.446 197.686 266.446 L 275.702 266.446 275.702 209.256 L 275.702 152.066 197.686 152.066 L 119.669 152.066 119.669 209.256 M262.479 209.587 L 262.479 251.901 199.008 251.901 L 135.537 251.901 135.537 209.587 L 135.537 167.273 199.008 167.273 L 262.479 167.273 262.479 209.587 " stroke="#000" stroke-width="1" fill="#000000" fill-rule="evenodd"></path></g></svg>